<svg width="35" height="40" fill="none" xmlns="http://www.w3.org/2000/svg"><path d="M34.385 21.9l-12.569-8.49.589-8.072A4.96 4.96 0 0017.445 0c-2.9 0-5.129 2.438-4.918 5.338l.588 8.071-12.61 8.533c-.295.21-.505.547-.505.925v2.312c0 .757.715 1.303 1.471 1.135l4.96-1.303v1.387c0 .378.295.673.673.673h1.723a.664.664 0 00.673-.673V24.17l4.372-1.135.756 10.341-4.54 2.102a.777.777 0 00-.462.714v3.027c0 .504.505.883 1.009.757l6.81-2.018 6.851 1.934c.505.126 1.01-.253 1.01-.757v-3.027a.777.777 0 00-.463-.714l-4.498-2.06.757-10.34 4.33 1.176v2.186c0 .378.294.673.672.673h1.723a.664.664 0 00.673-.673V24.97l4.918 1.345c.715.21 1.471-.378 1.471-1.135v-2.312c0-.378-.21-.714-.504-.967z" fill="#fff"/></svg>